<svg width="57" height="41" viewBox="0 0 57 41" fill="none" xmlns="http://www.w3.org/2000/svg">
<path d="M2.61273 39.9922L5.45273 33.0522H6.13273L8.96273 39.9922H7.94273L5.61273 34.1222H5.96273L3.61273 39.9922H2.61273ZM3.96273 38.4222V37.6022H7.61273V38.4222H3.96273ZM11.6329 40.0922C11.1929 40.0922 10.7996 39.9855 10.4529 39.7722C10.1062 39.5522 9.82956 39.2555 9.62289 38.8822C9.42289 38.5089 9.32289 38.0889 9.32289 37.6222C9.32289 37.1555 9.42289 36.7355 9.62289 36.3622C9.82956 35.9889 10.1062 35.6922 10.4529 35.4722C10.7996 35.2522 11.1929 35.1422 11.6329 35.1422C11.9862 35.1422 12.3062 35.2189 12.5929 35.3722C12.8796 35.5189 13.1096 35.7255 13.2829 35.9922C13.4629 36.2522 13.5629 36.5555 13.5829 36.9022V38.3322C13.5629 38.6722 13.4662 38.9755 13.2929 39.2422C13.1196 39.5089 12.8896 39.7189 12.6029 39.8722C12.3162 40.0189 11.9929 40.0922 11.6329 40.0922ZM11.7829 39.2422C12.0829 39.2422 12.3429 39.1722 12.5629 39.0322C12.7896 38.8922 12.9662 38.7022 13.0929 38.4622C13.2196 38.2155 13.2829 37.9355 13.2829 37.6222C13.2829 37.2955 13.2162 37.0122 13.0829 36.7722C12.9562 36.5322 12.7796 36.3422 12.5529 36.2022C12.3329 36.0622 12.0729 35.9922 11.7729 35.9922C11.4729 35.9922 11.2096 36.0622 10.9829 36.2022C10.7562 36.3422 10.5762 36.5355 10.4429 36.7822C10.3162 37.0222 10.2529 37.2989 10.2529 37.6122C10.2529 37.9322 10.3162 38.2155 10.4429 38.4622C10.5762 38.7022 10.7562 38.8922 10.9829 39.0322C11.2162 39.1722 11.4829 39.2422 11.7829 39.2422ZM14.1329 39.9922H13.2229V38.7122L13.3929 37.5522L13.2229 36.4022V32.8522H14.1329V39.9922ZM17.4532 40.0922C17.0132 40.0922 16.6199 39.9855 16.2732 39.7722C15.9265 39.5522 15.6499 39.2555 15.4432 38.8822C15.2432 38.5089 15.1432 38.0889 15.1432 37.6222C15.1432 37.1555 15.2432 36.7355 15.4432 36.3622C15.6499 35.9889 15.9265 35.6922 16.2732 35.4722C16.6199 35.2522 17.0132 35.1422 17.4532 35.1422C17.8065 35.1422 18.1265 35.2189 18.4132 35.3722C18.6999 35.5189 18.9299 35.7255 19.1032 35.9922C19.2832 36.2522 19.3832 36.5555 19.4032 36.9022V38.3322C19.3832 38.6722 19.2865 38.9755 19.1132 39.2422C18.9399 39.5089 18.7099 39.7189 18.4232 39.8722C18.1365 40.0189 17.8132 40.0922 17.4532 40.0922ZM17.6032 39.2422C17.9032 39.2422 18.1632 39.1722 18.3832 39.0322C18.6099 38.8922 18.7865 38.7022 18.9132 38.4622C19.0399 38.2155 19.1032 37.9355 19.1032 37.6222C19.1032 37.2955 19.0365 37.0122 18.9032 36.7722C18.7765 36.5322 18.5999 36.3422 18.3732 36.2022C18.1532 36.0622 17.8932 35.9922 17.5932 35.9922C17.2932 35.9922 17.0299 36.0622 16.8032 36.2022C16.5765 36.3422 16.3965 36.5355 16.2632 36.7822C16.1365 37.0222 16.0732 37.2989 16.0732 37.6122C16.0732 37.9322 16.1365 38.2155 16.2632 38.4622C16.3965 38.7022 16.5765 38.8922 16.8032 39.0322C17.0365 39.1722 17.3032 39.2422 17.6032 39.2422ZM19.9532 39.9922H19.0432V38.7122L19.2132 37.5522L19.0432 36.4022V32.8522H19.9532V39.9922ZM25.1873 39.9922V33.2522H26.1273V39.9922H25.1873ZM22.8273 33.9122V33.0522H28.4773V33.9122H22.8273ZM30.289 40.0922C29.8223 40.0922 29.4023 39.9822 29.029 39.7622C28.6557 39.5422 28.359 39.2455 28.139 38.8722C27.919 38.4922 27.809 38.0689 27.809 37.6022C27.809 37.1422 27.919 36.7289 28.139 36.3622C28.359 35.9889 28.6557 35.6922 29.029 35.4722C29.4023 35.2522 29.8223 35.1422 30.289 35.1422C30.749 35.1422 31.1657 35.2522 31.539 35.4722C31.919 35.6855 32.219 35.9789 32.439 36.3522C32.659 36.7255 32.769 37.1422 32.769 37.6022C32.769 38.0689 32.659 38.4922 32.439 38.8722C32.219 39.2455 31.919 39.5422 31.539 39.7622C31.1657 39.9822 30.749 40.0922 30.289 40.0922ZM30.289 39.2222C30.589 39.2222 30.8557 39.1522 31.089 39.0122C31.3223 38.8722 31.5057 38.6822 31.639 38.4422C31.7723 38.1955 31.839 37.9155 31.839 37.6022C31.839 37.2955 31.769 37.0222 31.629 36.7822C31.4957 36.5422 31.3123 36.3555 31.079 36.2222C30.8523 36.0822 30.589 36.0122 30.289 36.0122C29.989 36.0122 29.7223 36.0822 29.489 36.2222C29.2557 36.3555 29.0723 36.5422 28.939 36.7822C28.8057 37.0222 28.739 37.2955 28.739 37.6022C28.739 37.9155 28.8057 38.1955 28.939 38.4422C29.0723 38.6822 29.2557 38.8722 29.489 39.0122C29.7223 39.1522 29.989 39.2222 30.289 39.2222ZM39.1731 40.0922C38.6731 40.0922 38.2098 40.0022 37.7831 39.8222C37.3565 39.6355 36.9831 39.3789 36.6631 39.0522C36.3498 38.7255 36.1065 38.3455 35.9331 37.9122C35.7598 37.4789 35.6731 37.0155 35.6731 36.5222C35.6731 36.0222 35.7598 35.5555 35.9331 35.1222C36.1065 34.6889 36.3498 34.3122 36.6631 33.9922C36.9831 33.6655 37.3531 33.4122 37.7731 33.2322C38.1998 33.0455 38.6631 32.9522 39.1631 32.9522C39.7098 32.9522 40.1898 33.0455 40.6031 33.2322C41.0165 33.4189 41.3831 33.6722 41.7031 33.9922L41.0531 34.6422C40.8331 34.3955 40.5631 34.2022 40.2431 34.0622C39.9298 33.9222 39.5698 33.8522 39.1631 33.8522C38.7965 33.8522 38.4598 33.9189 38.1531 34.0522C37.8465 34.1789 37.5798 34.3622 37.3531 34.6022C37.1265 34.8422 36.9498 35.1255 36.8231 35.4522C36.7031 35.7789 36.6431 36.1355 36.6431 36.5222C36.6431 36.9089 36.7031 37.2655 36.8231 37.5922C36.9498 37.9189 37.1265 38.2022 37.3531 38.4422C37.5798 38.6822 37.8465 38.8689 38.1531 39.0022C38.4598 39.1289 38.7965 39.1922 39.1631 39.1922C39.5965 39.1922 39.9731 39.1222 40.2931 38.9822C40.6131 38.8355 40.8831 38.6389 41.1031 38.3922L41.7531 39.0322C41.4331 39.3655 41.0565 39.6255 40.6231 39.8122C40.1965 39.9989 39.7131 40.0922 39.1731 40.0922ZM44.6019 40.0922C44.1685 40.0922 43.7752 39.9855 43.4219 39.7722C43.0685 39.5522 42.7885 39.2555 42.5819 38.8822C42.3819 38.5089 42.2819 38.0889 42.2819 37.6222C42.2819 37.1555 42.3819 36.7355 42.5819 36.3622C42.7885 35.9889 43.0652 35.6922 43.4119 35.4722C43.7652 35.2522 44.1619 35.1422 44.6019 35.1422C44.9619 35.1422 45.2819 35.2189 45.5619 35.3722C45.8485 35.5189 46.0785 35.7255 46.2519 35.9922C46.4252 36.2522 46.5219 36.5555 46.5419 36.9022V38.3322C46.5219 38.6722 46.4252 38.9755 46.2519 39.2422C46.0852 39.5089 45.8585 39.7189 45.5719 39.8722C45.2919 40.0189 44.9685 40.0922 44.6019 40.0922ZM44.7519 39.2422C45.1985 39.2422 45.5585 39.0922 45.8319 38.7922C46.1052 38.4855 46.2419 38.0955 46.2419 37.6222C46.2419 37.2955 46.1785 37.0122 46.0519 36.7722C45.9319 36.5255 45.7585 36.3355 45.5319 36.2022C45.3052 36.0622 45.0419 35.9922 44.7419 35.9922C44.4419 35.9922 44.1752 36.0622 43.9419 36.2022C43.7152 36.3422 43.5352 36.5355 43.4019 36.7822C43.2752 37.0222 43.2119 37.2989 43.2119 37.6122C43.2119 37.9322 43.2752 38.2155 43.4019 38.4622C43.5352 38.7022 43.7185 38.8922 43.9519 39.0322C44.1852 39.1722 44.4519 39.2422 44.7519 39.2422ZM46.1819 39.9922V38.7122L46.3519 37.5522L46.1819 36.4022V35.2422H47.0919V39.9922H46.1819ZM48.4022 39.9922V35.2422H49.3022V39.9922H48.4022ZM49.3022 37.2822L48.9622 37.1322C48.9622 36.5255 49.1022 36.0422 49.3822 35.6822C49.6622 35.3222 50.0655 35.1422 50.5922 35.1422C50.8322 35.1422 51.0489 35.1855 51.2422 35.2722C51.4355 35.3522 51.6155 35.4889 51.7822 35.6822L51.1922 36.2922C51.0922 36.1855 50.9822 36.1089 50.8622 36.0622C50.7422 36.0155 50.6022 35.9922 50.4422 35.9922C50.1089 35.9922 49.8355 36.0989 49.6222 36.3122C49.4089 36.5255 49.3022 36.8489 49.3022 37.2822ZM53.1263 39.9922V33.2522H54.0263V39.9922H53.1263ZM51.9563 36.0622V35.2422H55.1963V36.0622H51.9563Z" fill="black"/>
<path d="M24.7573 20.2471C26.1624 20.39 27.2593 21.5767 27.2593 23.0195L27.2446 23.3047C27.1016 24.7097 25.9148 25.8065 24.4722 25.8066L24.187 25.792C22.8756 25.6588 21.8332 24.616 21.6997 23.3047L21.6851 23.0195C21.6851 21.4803 22.933 20.2324 24.4722 20.2324L24.7573 20.2471ZM37.022 20.2471C38.4271 20.39 39.5239 21.5767 39.5239 23.0195L39.5093 23.3047C39.3663 24.7097 38.1795 25.8066 36.7368 25.8066L36.4517 25.792C35.1404 25.6587 34.0978 24.6159 33.9644 23.3047L33.9497 23.0195C33.9497 21.4804 35.1978 20.2326 36.7368 20.2324L37.022 20.2471ZM36.7368 22.2324C36.3023 22.2326 35.9497 22.585 35.9497 23.0195C35.9499 23.4538 36.3025 23.8065 36.7368 23.8066C37.1712 23.8066 37.5237 23.4539 37.5239 23.0195C37.5239 22.585 37.1714 22.2325 36.7368 22.2324ZM24.4722 22.2324C24.0375 22.2324 23.6851 22.5849 23.6851 23.0195C23.6853 23.454 24.0377 23.8066 24.4722 23.8066C24.9065 23.8065 25.259 23.4539 25.2593 23.0195C25.2593 22.585 24.9067 22.2326 24.4722 22.2324ZM18.4507 0.0361328C18.9959 0.0838246 19.4523 0.48401 19.5649 1.02832L22.7036 16.1953H38.5034L41.3315 2.53125H39.522C38.8318 2.53109 38.2721 1.97138 38.272 1.28125C38.272 0.590994 38.8318 0.0314127 39.522 0.03125H42.8667C43.2425 0.0313881 43.5982 0.200788 43.8354 0.492188C44.0727 0.78361 44.1664 1.16618 44.0903 1.53418L40.7456 17.6992C40.6252 18.2793 40.1144 18.6953 39.522 18.6953H21.6851C21.0928 18.695 20.5817 18.2792 20.4614 17.6992L17.3228 2.53125H12.7671C12.077 2.53109 11.5172 1.97138 11.5171 1.28125C11.5171 0.590994 12.0769 0.0314127 12.7671 0.03125H18.3413L18.4507 0.0361328ZM30.5073 2.86035C31.1226 2.86081 31.6217 3.36039 31.6226 3.97559L31.6235 6.75977L34.4106 6.76172C35.0263 6.76209 35.5265 7.26225 35.5269 7.87793C35.5268 8.49289 35.0285 8.99105 34.4136 8.99121L31.6245 8.99023L31.6274 11.7793C31.6278 12.3949 31.1288 12.8948 30.5132 12.8945C29.8979 12.894 29.3987 12.3946 29.3979 11.7793L29.395 8.98828L26.6099 8.98633C25.9942 8.98596 25.494 8.4858 25.4937 7.87012C25.4938 7.25516 25.992 6.75692 26.6069 6.75684L29.394 6.75879L29.3931 3.97559C29.3927 3.35996 29.8917 2.86006 30.5073 2.86035Z" fill="black"/>
</svg>
