<svg width="32" height="25" viewBox="0 0 32 25" fill="none" xmlns="http://www.w3.org/2000/svg">
<path d="M13.0391 19.6387C14.3939 19.7763 15.4519 20.9213 15.4521 22.3125L15.4375 22.5869C15.2999 23.9419 14.1558 24.9997 12.7646 25L12.4893 24.9854C11.2247 24.8567 10.2192 23.8516 10.0908 22.5869L10.0771 22.3125C10.0774 20.8286 11.2806 19.625 12.7646 19.625L13.0391 19.6387ZM24.8643 19.6387C26.2193 19.7762 27.2771 20.9213 27.2773 22.3125L27.2627 22.5869C27.1251 23.942 25.9812 24.9999 24.5898 25L24.3145 24.9854C23.0499 24.8567 22.0444 23.8515 21.916 22.5869L21.9023 22.3125C21.9026 20.8286 23.1059 19.625 24.5898 19.625L24.8643 19.6387ZM24.5898 21.625C24.2104 21.625 23.9026 21.9331 23.9023 22.3125C23.9025 22.692 24.2104 23 24.5898 23C24.9692 22.9999 25.2772 22.6919 25.2773 22.3125C25.2771 21.9332 24.9692 21.6251 24.5898 21.625ZM12.7646 21.625C12.3852 21.625 12.0774 21.9331 12.0771 22.3125C12.0773 22.692 12.3851 23 12.7646 23C13.1439 22.9997 13.452 22.6918 13.4521 22.3125C13.4519 21.9333 13.1438 21.6253 12.7646 21.625ZM6.96191 0.107422C7.50694 0.155271 7.96358 0.555429 8.07617 1.09961L11.0947 15.6885H26.2578L28.6094 4.3252H17.0752C16.385 4.32514 15.8254 3.76531 15.8252 3.0752C15.8252 2.38487 16.3849 1.82525 17.0752 1.8252H30.1436C30.5194 1.82526 30.8759 1.99467 31.1133 2.28613C31.3502 2.57748 31.4441 2.96035 31.3682 3.32812L28.5 17.1924C28.3797 17.7724 27.8678 18.1884 27.2754 18.1885H10.0771C9.48467 18.1885 8.97292 17.7724 8.85254 17.1924L5.83398 2.60254H1.47754C0.787332 2.60254 0.22778 2.04269 0.227539 1.35254C0.227539 0.662183 0.787183 0.102539 1.47754 0.102539H6.85254L6.96191 0.107422Z" fill="black"/>
</svg>
