<svg width="67" height="63" viewBox="0 0 67 63" fill="none" xmlns="http://www.w3.org/2000/svg">
<path d="M3.37559 59.7429V51.6549H4.50359V59.7429H3.37559ZM0.543594 52.4469V51.4149H7.32359V52.4469H0.543594ZM9.53356 59.8629C8.96556 59.8629 8.45356 59.7349 7.99756 59.4789C7.54156 59.2149 7.18156 58.8589 6.91756 58.4109C6.65356 57.9629 6.52156 57.4549 6.52156 56.8869C6.52156 56.3269 6.64956 55.8229 6.90556 55.3749C7.16956 54.9269 7.52156 54.5749 7.96156 54.3189C8.40956 54.0549 8.90956 53.9229 9.46156 53.9229C9.98956 53.9229 10.4536 54.0429 10.8536 54.2829C11.2616 54.5229 11.5776 54.8549 11.8016 55.2789C12.0336 55.7029 12.1496 56.1829 12.1496 56.7189C12.1496 56.7989 12.1456 56.8869 12.1376 56.9829C12.1296 57.0709 12.1136 57.1749 12.0896 57.2949H7.27756V56.3949H11.5136L11.1176 56.7429C11.1176 56.3589 11.0496 56.0349 10.9136 55.7709C10.7776 55.4989 10.5856 55.2909 10.3376 55.1469C10.0896 54.9949 9.78956 54.9189 9.43756 54.9189C9.06956 54.9189 8.74556 54.9989 8.46556 55.1589C8.18556 55.3189 7.96956 55.5429 7.81756 55.8309C7.66556 56.1189 7.58956 56.4589 7.58956 56.8509C7.58956 57.2509 7.66956 57.6029 7.82956 57.9069C7.98956 58.2029 8.21756 58.4349 8.51356 58.6029C8.80956 58.7629 9.14956 58.8429 9.53356 58.8429C9.85356 58.8429 10.1456 58.7869 10.4096 58.6749C10.6816 58.5629 10.9136 58.3949 11.1056 58.1709L11.8016 58.8789C11.5296 59.1989 11.1936 59.4429 10.7936 59.6109C10.4016 59.7789 9.98156 59.8629 9.53356 59.8629ZM17.3592 59.7429V56.4189C17.3592 55.9869 17.2232 55.6309 16.9512 55.3509C16.6792 55.0709 16.3272 54.9309 15.8952 54.9309C15.6072 54.9309 15.3512 54.9949 15.1272 55.1229C14.9032 55.2509 14.7272 55.4269 14.5992 55.6509C14.4712 55.8749 14.4072 56.1309 14.4072 56.4189L13.9632 56.1669C13.9632 55.7349 14.0592 55.3509 14.2512 55.0149C14.4432 54.6789 14.7112 54.4149 15.0552 54.2229C15.3992 54.0229 15.7872 53.9229 16.2192 53.9229C16.6512 53.9229 17.0312 54.0309 17.3592 54.2469C17.6952 54.4629 17.9592 54.7469 18.1512 55.0989C18.3432 55.4429 18.4392 55.8109 18.4392 56.2029V59.7429H17.3592ZM13.3272 59.7429V54.0429H14.4072V59.7429H13.3272ZM21.7134 59.8629C21.3934 59.8629 21.0894 59.8229 20.8014 59.7429C20.5214 59.6549 20.2614 59.5349 20.0214 59.3829C19.7814 59.2229 19.5734 59.0349 19.3974 58.8189L20.0934 58.1229C20.3014 58.3789 20.5414 58.5709 20.8134 58.6989C21.0854 58.8189 21.3894 58.8789 21.7254 58.8789C22.0614 58.8789 22.3214 58.8229 22.5054 58.7109C22.6894 58.5909 22.7814 58.4269 22.7814 58.2189C22.7814 58.0109 22.7054 57.8509 22.5534 57.7389C22.4094 57.6189 22.2214 57.5229 21.9894 57.4509C21.7574 57.3709 21.5094 57.2949 21.2454 57.2229C20.9894 57.1429 20.7454 57.0429 20.5134 56.9229C20.2814 56.8029 20.0894 56.6389 19.9374 56.4309C19.7934 56.2229 19.7214 55.9469 19.7214 55.6029C19.7214 55.2589 19.8054 54.9629 19.9734 54.7149C20.1414 54.4589 20.3734 54.2629 20.6694 54.1269C20.9734 53.9909 21.3374 53.9229 21.7614 53.9229C22.2094 53.9229 22.6054 54.0029 22.9494 54.1629C23.3014 54.3149 23.5894 54.5469 23.8134 54.8589L23.1174 55.5549C22.9574 55.3469 22.7574 55.1869 22.5174 55.0749C22.2854 54.9629 22.0214 54.9069 21.7254 54.9069C21.4134 54.9069 21.1734 54.9629 21.0054 55.0749C20.8454 55.1789 20.7654 55.3269 20.7654 55.5189C20.7654 55.7109 20.8374 55.8589 20.9814 55.9629C21.1254 56.0669 21.3134 56.1549 21.5454 56.2269C21.7854 56.2989 22.0334 56.3749 22.2894 56.4549C22.5454 56.5269 22.7894 56.6269 23.0214 56.7549C23.2534 56.8829 23.4414 57.0549 23.5854 57.2709C23.7374 57.4869 23.8134 57.7709 23.8134 58.1229C23.8134 58.6589 23.6214 59.0829 23.2374 59.3949C22.8614 59.7069 22.3534 59.8629 21.7134 59.8629ZM25.0345 59.7429V54.0429H26.1145V59.7429H25.0345ZM25.5745 52.9029C25.3745 52.9029 25.2105 52.8389 25.0825 52.7109C24.9545 52.5749 24.8905 52.4069 24.8905 52.2069C24.8905 52.0149 24.9545 51.8549 25.0825 51.7269C25.2105 51.5909 25.3745 51.5229 25.5745 51.5229C25.7745 51.5229 25.9385 51.5909 26.0665 51.7269C26.1945 51.8549 26.2585 52.0149 26.2585 52.2069C26.2585 52.4069 26.1945 52.5749 26.0665 52.7109C25.9385 52.8389 25.7745 52.9029 25.5745 52.9029ZM30.3101 59.8629C29.7501 59.8629 29.2461 59.7309 28.7981 59.4669C28.3501 59.2029 27.9941 58.8469 27.7301 58.3989C27.4661 57.9429 27.3341 57.4349 27.3341 56.8749C27.3341 56.3229 27.4661 55.8269 27.7301 55.3869C27.9941 54.9389 28.3501 54.5829 28.7981 54.3189C29.2461 54.0549 29.7501 53.9229 30.3101 53.9229C30.8621 53.9229 31.3621 54.0549 31.8101 54.3189C32.2661 54.5749 32.6261 54.9269 32.8901 55.3749C33.1541 55.8229 33.2861 56.3229 33.2861 56.8749C33.2861 57.4349 33.1541 57.9429 32.8901 58.3989C32.6261 58.8469 32.2661 59.2029 31.8101 59.4669C31.3621 59.7309 30.8621 59.8629 30.3101 59.8629ZM30.3101 58.8189C30.6701 58.8189 30.9901 58.7349 31.2701 58.5669C31.5501 58.3989 31.7701 58.1709 31.9301 57.8829C32.0901 57.5869 32.1701 57.2509 32.1701 56.8749C32.1701 56.5069 32.0861 56.1789 31.9181 55.8909C31.7581 55.6029 31.5381 55.3789 31.2581 55.2189C30.9861 55.0509 30.6701 54.9669 30.3101 54.9669C29.9501 54.9669 29.6301 55.0509 29.3501 55.2189C29.0701 55.3789 28.8501 55.6029 28.6901 55.8909C28.5301 56.1789 28.4501 56.5069 28.4501 56.8749C28.4501 57.2509 28.5301 57.5869 28.6901 57.8829C28.8501 58.1709 29.0701 58.3989 29.3501 58.5669C29.6301 58.7349 29.9501 58.8189 30.3101 58.8189ZM38.5349 59.7429V56.4189C38.5349 55.9869 38.3989 55.6309 38.1269 55.3509C37.8549 55.0709 37.5029 54.9309 37.0709 54.9309C36.7829 54.9309 36.5269 54.9949 36.3029 55.1229C36.0789 55.2509 35.9029 55.4269 35.7749 55.6509C35.6469 55.8749 35.5829 56.1309 35.5829 56.4189L35.1389 56.1669C35.1389 55.7349 35.2349 55.3509 35.4269 55.0149C35.6189 54.6789 35.8869 54.4149 36.2309 54.2229C36.5749 54.0229 36.9629 53.9229 37.3949 53.9229C37.8269 53.9229 38.2069 54.0309 38.5349 54.2469C38.8709 54.4629 39.1349 54.7469 39.3269 55.0989C39.5189 55.4429 39.6149 55.8109 39.6149 56.2029V59.7429H38.5349ZM34.5029 59.7429V54.0429H35.5829V59.7429H34.5029ZM43.7653 59.7429V51.4149H44.5573L48.0853 57.2109H47.5453L51.0733 51.4149H51.8653V59.7429H50.7373V53.3949L51.0013 53.4669L48.2173 58.0389H47.4253L44.6413 53.4669L44.8933 53.3949V59.7429H43.7653ZM56.0637 59.8629C55.5437 59.8629 55.0717 59.7349 54.6477 59.4789C54.2237 59.2149 53.8877 58.8589 53.6397 58.4109C53.3997 57.9629 53.2797 57.4589 53.2797 56.8989C53.2797 56.3389 53.3997 55.8349 53.6397 55.3869C53.8877 54.9389 54.2197 54.5829 54.6357 54.3189C55.0597 54.0549 55.5357 53.9229 56.0637 53.9229C56.4957 53.9229 56.8797 54.0149 57.2157 54.1989C57.5597 54.3749 57.8357 54.6229 58.0437 54.9429C58.2517 55.2549 58.3677 55.6189 58.3917 56.0349V57.7509C58.3677 58.1589 58.2517 58.5229 58.0437 58.8429C57.8437 59.1629 57.5717 59.4149 57.2277 59.5989C56.8917 59.7749 56.5037 59.8629 56.0637 59.8629ZM56.2437 58.8429C56.7797 58.8429 57.2117 58.6629 57.5397 58.3029C57.8677 57.9349 58.0317 57.4669 58.0317 56.8989C58.0317 56.5069 57.9557 56.1669 57.8037 55.8789C57.6597 55.5829 57.4517 55.3549 57.1797 55.1949C56.9077 55.0269 56.5917 54.9429 56.2317 54.9429C55.8717 54.9429 55.5517 55.0269 55.2717 55.1949C54.9997 55.3629 54.7837 55.5949 54.6237 55.8909C54.4717 56.1789 54.3957 56.5109 54.3957 56.8869C54.3957 57.2709 54.4717 57.6109 54.6237 57.9069C54.7837 58.1949 55.0037 58.4229 55.2837 58.5909C55.5637 58.7589 55.8837 58.8429 56.2437 58.8429ZM57.9597 59.7429V58.2069L58.1637 56.8149L57.9597 55.4349V54.0429H59.0517V59.7429H57.9597ZM63.624 59.8629C63.192 59.8629 62.8 59.7749 62.448 59.5989C62.104 59.4149 61.828 59.1629 61.62 58.8429C61.412 58.5229 61.296 58.1589 61.272 57.7509V56.0349C61.296 55.6189 61.412 55.2549 61.62 54.9429C61.836 54.6229 62.116 54.3749 62.46 54.1989C62.812 54.0149 63.2 53.9229 63.624 53.9229C64.144 53.9229 64.612 54.0549 65.028 54.3189C65.452 54.5829 65.784 54.9389 66.024 55.3869C66.264 55.8349 66.384 56.3389 66.384 56.8989C66.384 57.4589 66.264 57.9629 66.024 58.4109C65.784 58.8589 65.452 59.2149 65.028 59.4789C64.612 59.7349 64.144 59.8629 63.624 59.8629ZM60.624 62.1309V54.0429H61.704V55.5429L61.5 56.9229L61.704 58.3149V62.1309H60.624ZM63.444 58.8429C63.804 58.8429 64.12 58.7589 64.392 58.5909C64.664 58.4229 64.88 58.1949 65.04 57.9069C65.2 57.6109 65.28 57.2709 65.28 56.8869C65.28 56.5109 65.2 56.1749 65.04 55.8789C64.88 55.5829 64.664 55.3549 64.392 55.1949C64.12 55.0269 63.808 54.9429 63.456 54.9429C63.096 54.9429 62.78 55.0269 62.508 55.1949C62.236 55.3549 62.024 55.5829 61.872 55.8789C61.72 56.1749 61.644 56.5149 61.644 56.8989C61.644 57.2749 61.716 57.6109 61.86 57.9069C62.012 58.1949 62.224 58.4229 62.496 58.5909C62.776 58.7589 63.092 58.8429 63.444 58.8429Z" fill="black"/>
<circle cx="33.5" cy="22.8403" r="21.8403" stroke="black" stroke-width="2"/>
</svg>
